<?xml version="1.0" encoding="UTF-8" standalone="no"?>
<svg
   version="1.1"
   width="31.999542"
   height="31.999992"
   id="svg1"
   xmlns="http://www.w3.org/2000/svg"
   xmlns:svg="http://www.w3.org/2000/svg">
  <defs
     id="defs1" />
  <path
     d="m 29.139536,0.0027621 c 0.40507,0.001 0.40507,0.001 0.81831,0.004 0.70076,0.0267 1.35246,0.10403 2.04171,0.20696 -0.1333,0.17348 -0.1333,0.17348 -0.2693,0.35046 -0.93908,1.23243 -1.82186,2.48598 -2.68256,3.75832 -0.27755,0.40892 -0.55519,0.81779 -0.83308,1.22655 -0.0697,0.10266 -0.1395,0.20533 -0.21135,0.3111 -0.45279,0.66533 -0.91215,1.32711 -1.3761,1.98693 -1.71029,2.4353699 -3.28043,4.9165499 -4.80458,7.4381599 -0.34324,0.56235 -0.6976,1.11881 -1.05596,1.67435 l -6.26404,14.81672 c -0.58733,0.25802 0.38804,-0.12105 0.01,0.007 -1.34087,0.45249 -3.16589,-0.52269 -3.37764,-1.19207 -0.3155,-0.99732 0.15868,-2.95854 0.29441,-3.44312 l -0.33947,0.44161 c -3.0230096,3.8554 -3.0230096,3.8554 -5.3281196,4.34273 -1.46025,0.14027 -2.71247,0.10582 -3.9883,-0.53159 -0.88343002,-0.62711 -1.56684002,-1.3155 -1.74293002,-2.30785 -0.0289,-0.40992 -0.0345,-0.81442 -0.0282,-1.22503 0.002,-0.14855 0.004,-0.29709 0.006,-0.45014 0.13486,-4.15966 2.94037002,-7.94644 6.36082002,-10.8141 1.20248,-0.95544 2.52759,-1.61543 4.0108996,-2.21389 0.15585,-0.0672 0.31171,-0.13431 0.47229,-0.20351 1.93017,-0.69375 4.65405,-0.5673 6.58594,0.0263 0.30895,0.11278 0.61652,0.22868 0.91837,0.3544 0.0482,-0.13934 0.0963,-0.27867 0.14595,-0.42223 0.3559,-0.83294 0.82173,-1.60251 1.29718,-2.39079 0.10159,-0.17017 0.20318,-0.34035 0.30785,-0.51568 0.43164,-0.723 0.86519,-1.4451899 1.29876,-2.1673799 0.318,-0.53029 0.63512,-1.06094 0.95167,-1.59184 0.15686,-0.26271 0.15686,-0.26271 0.31687,-0.53073 0.82394,-1.39131 1.59171,-2.80124 2.31813,-4.23078 0.52668,-1.01226 1.06863,-1.89669 2.14867,-2.56798 0.67245,-0.16823 1.29957,-0.15253 1.99907,-0.14605 z M 9.7490464,18.110182 c -0.16669,0.14071 -0.33337,0.28142 -0.5051,0.42639 -2.78931,2.48728 -5.89697,6.40981 -6.09396,9.92863 0.10357,0.71192 0.31347,1.34996 0.93147,1.87165 1.21836,0.14999 1.88794,-0.11315 2.87233,-0.71917 4.2367796,-2.99752 6.9206196,-8.03285 9.5064996,-12.06513 0.14944,-0.22737 0.30394,-0.4524 0.46236,-0.6754 0.49143,-0.61247 0.49143,-0.61247 0.47501,-1.31419 -0.38717,-0.36946 -0.75807,-0.44105 -1.32506,-0.51982 -2.65524,-0.13597 -4.5803,1.58714 -6.3235496,3.06704 z"
     fill="#000000"
     id="path1"
     style="fill:#2b0000;fill-opacity:1;stroke-width:0.246617" />
</svg>
